<?xml version="1.0" encoding="UTF-8"?>
<svg id="Layer_1" xmlns="http://www.w3.org/2000/svg" version="1.1" viewBox="0 0 51 51">
  <!-- Generator: Adobe Illustrator 29.3.1, SVG Export Plug-In . SVG Version: 2.1.0 Build 151)  -->
  <defs>
    <style>
      .st0 {
        stroke: #fff;
      }

      .st0, .st1 {
        fill: none;
        stroke-linecap: round;
        stroke-linejoin: round;
        stroke-width: 2px;
      }

      .st1 {
        stroke: #f60;
      }
    </style>
  </defs>
  <path class="st1" d="M49,38.3v7.1c0,.9-.4,1.9-1,2.5-.7.7-1.6,1-2.5,1h-7.1"/>
  <path class="st1" d="M38.2,2.6h7.1c.9,0,1.9.4,2.5,1,.7.7,1,1.6,1,2.5v7.1"/>
  <path class="st1" d="M2.5,13.3v-7.1c0-.9.4-1.9,1-2.5.7-.7,1.6-1,2.5-1h7.1"/>
  <path class="st1" d="M13.2,49h-7.1c-.9,0-1.9-.4-2.5-1-.7-.7-1-1.6-1-2.5v-7.1"/>
  <path class="st0" d="M41.8,25.8s-7.1,10.7-16.1,10.7-16.1-10.7-16.1-10.7c0,0,7.1-10.7,16.1-10.7s16.1,10.7,16.1,10.7Z"/>
  <path class="st0" d="M25.7,27.6c1,0,1.8-.8,1.8-1.8s-.8-1.8-1.8-1.8-1.8.8-1.8,1.8.8,1.8,1.8,1.8Z"/>
</svg>