<svg width="25" height="24" viewBox="0 0 25 24" fill="none" xmlns="http://www.w3.org/2000/svg">
<g clip-path="url(#clip0_97_9070)">
<path d="M19.7099 14.8671C19.2185 14.3555 18.6259 14.082 17.9978 14.082C17.3747 14.082 16.777 14.3505 16.2654 14.8621L14.6648 16.4576C14.5331 16.3867 14.4014 16.3209 14.2747 16.255C14.0924 16.1639 13.9202 16.0777 13.7733 15.9866C12.2739 15.0343 10.9113 13.7933 9.60447 12.1875C8.9713 11.3872 8.54581 10.7135 8.23682 10.0297C8.65218 9.64979 9.03715 9.25469 9.41199 8.87479C9.55382 8.73296 9.69565 8.58607 9.83748 8.44424C10.9012 7.38051 10.9012 6.00273 9.83748 4.939L8.45464 3.55616C8.29761 3.39913 8.13552 3.23704 7.98356 3.07495C7.67963 2.7609 7.36052 2.43671 7.03127 2.13279C6.53993 1.64652 5.95235 1.38818 5.33437 1.38818C4.7164 1.38818 4.11868 1.64652 3.61215 2.13279C3.60708 2.13786 3.60708 2.13786 3.60202 2.14292L1.87979 3.88034C1.23143 4.52871 0.861655 5.31891 0.780609 6.23574C0.65904 7.71482 1.09466 9.0926 1.42898 9.99424C2.24956 12.2078 3.47538 14.2593 5.30398 16.4576C7.52261 19.1068 10.1921 21.1988 13.2414 22.6728C14.4064 23.225 15.9615 23.8784 17.6989 23.9898C17.8053 23.9949 17.9167 24 18.018 24C19.1881 24 20.1708 23.5795 20.9408 22.7438C20.9458 22.7336 20.956 22.7286 20.961 22.7184C21.2244 22.3993 21.5283 22.1106 21.8475 21.8016C22.0653 21.5939 22.2881 21.3761 22.506 21.1482C23.0074 20.6264 23.2708 20.0186 23.2708 19.3956C23.2708 18.7674 23.0024 18.1647 22.4908 17.6581L19.7099 14.8671ZM21.5233 20.2009C21.5182 20.2009 21.5182 20.206 21.5233 20.2009C21.3257 20.4137 21.1231 20.6062 20.9053 20.8189C20.5761 21.133 20.2417 21.4622 19.9277 21.832C19.4161 22.3791 18.8133 22.6374 18.0231 22.6374C17.9471 22.6374 17.8661 22.6374 17.7901 22.6323C16.2857 22.5361 14.8876 21.9485 13.8391 21.447C10.9721 20.0591 8.45464 18.0887 6.36264 15.5915C4.63535 13.5096 3.48045 11.5848 2.71558 9.51809C2.2445 8.25682 2.07228 7.27414 2.14826 6.34718C2.19891 5.75453 2.42685 5.26319 2.84728 4.84276L4.57457 3.11547C4.82277 2.88247 5.08617 2.75583 5.3445 2.75583C5.66362 2.75583 5.92195 2.94832 6.08404 3.11041C6.08911 3.11547 6.09418 3.12054 6.09924 3.1256C6.40823 3.41433 6.70202 3.71319 7.01101 4.0323C7.16803 4.1944 7.33012 4.35649 7.49222 4.52364L8.87506 5.90649C9.41199 6.44342 9.41199 6.93982 8.87506 7.47675C8.72817 7.62365 8.58633 7.77054 8.43944 7.91237C8.01395 8.34799 7.60872 8.75322 7.16803 9.14832C7.1579 9.15845 7.14777 9.16352 7.14271 9.17365C6.70709 9.60927 6.78813 10.0348 6.87931 10.3235C6.88437 10.3387 6.88944 10.3539 6.8945 10.3691C7.25414 11.2403 7.76068 12.0609 8.53062 13.0385L8.53568 13.0436C9.93372 14.7658 11.4077 16.1081 13.0337 17.1364C13.2414 17.2681 13.4541 17.3745 13.6568 17.4758C13.8391 17.567 14.0113 17.6531 14.1582 17.7442C14.1785 17.7544 14.1988 17.7696 14.219 17.7797C14.3912 17.8658 14.5533 17.9063 14.7205 17.9063C15.1409 17.9063 15.4043 17.6429 15.4904 17.5568L17.2228 15.8245C17.395 15.6522 17.6685 15.4446 17.9876 15.4446C18.3017 15.4446 18.56 15.6421 18.7171 15.8143C18.7221 15.8194 18.7221 15.8194 18.7272 15.8245L21.5182 18.6155C22.0399 19.1322 22.0399 19.664 21.5233 20.2009Z" fill="#FF6600"/>
<path d="M13.7123 5.70896C15.0394 5.93183 16.245 6.55994 17.2074 7.52236C18.1698 8.48478 18.7928 9.69033 19.0208 11.0175C19.0765 11.3518 19.3652 11.5848 19.6945 11.5848C19.735 11.5848 19.7705 11.5797 19.811 11.5747C20.1858 11.5139 20.434 11.1593 20.3732 10.7845C20.0997 9.17873 19.3399 7.71484 18.1799 6.55487C17.02 5.39491 15.5561 4.6351 13.9504 4.36157C13.5755 4.30079 13.226 4.54899 13.1602 4.91876C13.0943 5.28853 13.3375 5.64817 13.7123 5.70896Z" fill="#FF6600"/>
<path d="M24.7145 10.5869C24.2637 7.94279 23.0176 5.53674 21.1029 3.62203C19.1882 1.70732 16.7822 0.461243 14.138 0.0104253C13.7683 -0.0554245 13.4187 0.197844 13.3529 0.567615C13.2921 0.942452 13.5403 1.29196 13.9152 1.35781C16.2756 1.75798 18.4284 2.87742 20.1405 4.58445C21.8526 6.29654 22.967 8.44932 23.3671 10.8098C23.4228 11.1441 23.7116 11.3771 24.0408 11.3771C24.0813 11.3771 24.1168 11.372 24.1573 11.367C24.5271 11.3113 24.7804 10.9567 24.7145 10.5869Z" fill="#FF6600"/>
</g>
<defs>
<clipPath id="clip0_97_9070">
<rect width="24" height="24" fill="white" transform="translate(0.742188)"/>
</clipPath>
</defs>
</svg>
