<?xml version="1.0" encoding="UTF-8"?>
<svg id="Layer_1" xmlns="http://www.w3.org/2000/svg" version="1.1" viewBox="0 0 50 51">
  <!-- Generator: Adobe Illustrator 29.3.1, SVG Export Plug-In . SVG Version: 2.1.0 Build 151)  -->
  <defs>
    <style>
      .st0 {
        fill: #f60;
      }

      .st1 {
        fill: #fff;
        stroke: #231f20;
        stroke-miterlimit: 10;
      }
    </style>
  </defs>
  <path class="st1" d="M1.5,45.7c.3.1.6,0,.8-.3,1-1.3,2.5-2,4.1-2h0c1.6,0,3.1.7,4.1,2,.2.3.5.4.8.3.3-.1.5-.4.5-.7V7.6c0-.2,0-.3-.2-.5-1.3-1.7-3.2-2.6-5.3-2.6,0,0,0,0,0,0-2.1,0-4,1-5.3,2.6,0,.1-.2.3-.2.5v37.4c0,.3.2.6.5.7ZM2.4,33.8v-7.2c2-2.5,5.8-2.5,7.8,0v7.2c-2.3-1.7-5.5-1.7-7.8,0ZM10.3,24.5c-2.3-1.7-5.5-1.7-7.8,0v-7.2c2-2.5,5.8-2.5,7.8,0v7.2ZM6.4,42h0c-1.4,0-2.8.5-3.9,1.3v-7.3c2-2.5,5.8-2.5,7.8,0v7.3c-1.1-.8-2.5-1.3-3.9-1.3ZM6.4,6.1s0,0,0,0c1.5,0,2.9.7,3.9,1.8v7.3c-2.3-1.7-5.5-1.7-7.8,0v-7.3c1-1.2,2.4-1.8,3.9-1.8Z"/>
  <path class="st0" d="M36.3,6.5c.4.2.8,0,1-.4.2-.4,0-.8-.4-1-2.5-1.1-5.4-.5-7.3,1.4-1.2-1.2-2.9-1.9-4.7-1.9,0,0,0,0,0,0-1.8,0-3.4.7-4.7,1.9-1.9-1.9-4.7-2.5-7.3-1.4-.4.2-.6.6-.4,1,.2.4.6.6,1,.4,2.1-.9,4.5-.3,5.9,1.4v7.3c-1.6-1.2-3.7-1.6-5.8-1-.4.1-.6.5-.5.9.1.4.5.6.9.5,2-.6,4.1,0,5.4,1.7v7.2c-1.6-1.2-3.7-1.6-5.8-1-.4.1-.6.5-.5.9.1.4.5.6.9.5,2-.6,4.1,0,5.4,1.6v7.3c-1.6-1.2-3.7-1.6-5.8-1-.4.1-.6.5-.5.9.1.4.5.6.9.5,2-.6,4.1,0,5.4,1.6v7.2c-1.6-1.2-3.7-1.6-5.8-1-.4.1-.6.5-.5.9.1.4.5.6.9.5,2.1-.6,4.2.1,5.5,1.8,0,0,0,0,0,0,.3.4.9.4,1.2,0,1-1.3,2.5-2,4.1-2h0c1.6,0,3.1.7,4,2,0,0,0,0,0,0,0,0,0,0,0,0,0,0,0,0,0,0,.3.4.9.3,1.2,0,1.3-1.7,3.4-2.4,5.5-1.8.4.1.8-.1.9-.5.1-.4-.1-.8-.5-.9-2-.6-4.1-.2-5.8,1v-7.3c1.3-1.6,3.4-2.2,5.4-1.7.4.1.8-.1.9-.5.1-.4-.1-.8-.5-.9-2-.6-4.1-.2-5.8,1v-7.2c1.3-1.6,3.4-2.2,5.4-1.7.4.1.8-.1.9-.5.1-.4-.1-.8-.5-.9-2-.6-4.1-.2-5.8,1v-7.3c1.3-1.6,3.4-2.2,5.4-1.7.4.1.8-.1.9-.5,0-.1,0-.2,0-.3,0-.3-.2-.6-.5-.7-2-.6-4.1-.2-5.8,1v-7.3c1.4-1.7,3.8-2.3,5.9-1.4ZM21.1,17.3c2-2.5,5.8-2.5,7.8,0v7.2c-2.3-1.7-5.5-1.7-7.8,0v-7.2ZM21.1,26.6c2-2.5,5.8-2.5,7.8,0v7.2c-2.3-1.7-5.5-1.7-7.8,0v-7.2ZM25,6.1s0,0,0,0c1.5,0,2.9.7,3.9,1.8v7.3c-2.3-1.7-5.5-1.7-7.8,0v-7.3c1-1.2,2.4-1.8,3.9-1.8ZM25,42h0c-1.4,0-2.8.5-3.9,1.3v-7.3c2-2.5,5.8-2.5,7.8,0v7.3c-1.1-.8-2.5-1.3-3.9-1.3Z"/>
  <path class="st0" d="M43.7,4.6s0,0,0,0c-2.1,0-4,1-5.3,2.6,0,.1-.2.3-.2.5v37.4c0,.3.2.6.5.7.3.1.6,0,.8-.3,1-1.3,2.5-2,4.1-2h0c1.6,0,3.1.7,4.1,2,.1.2.4.3.6.3s.2,0,.2,0c.3-.1.5-.4.5-.7V7.6c0-.2,0-.3-.2-.5-1.3-1.7-3.2-2.6-5.3-2.6ZM47.6,24.5c-2.3-1.7-5.5-1.7-7.8,0v-7.2c2-2.5,5.8-2.5,7.8,0v7.2ZM39.7,33.8v-7.2c2-2.5,5.8-2.5,7.8,0v7.2c-2.3-1.7-5.5-1.7-7.8,0ZM43.7,6.1s0,0,0,0c1.5,0,2.9.7,3.9,1.8v7.3c-2.3-1.7-5.5-1.8-7.8,0v-7.3c1-1.2,2.4-1.8,3.9-1.8ZM43.7,42h0c-1.4,0-2.8.5-3.9,1.3v-7.3c2-2.5,5.8-2.5,7.8,0v7.3c-1.1-.8-2.5-1.3-3.9-1.3Z"/>
</svg>