<?xml version="1.0" encoding="UTF-8"?>
<svg id="Layer_1" data-name="Layer 1" xmlns="http://www.w3.org/2000/svg" viewBox="0 0 48.63 42.24">
  <defs>
    <style>
      .cls-1 {
        fill: #f60;
      }

      .cls-2 {
        fill: #fff;
        stroke: #231f20;
        stroke-miterlimit: 10;
      }
    </style>
  </defs>
  <path class="cls-2" d="M1.01,41.7c.31.1.64,0,.84-.26.97-1.29,2.45-2.03,4.06-2.03h0c1.61,0,3.09.74,4.06,2.03.2.26.54.36.84.26.31-.1.51-.39.51-.71V3.58c0-.16-.05-.32-.15-.45-1.25-1.67-3.17-2.63-5.26-2.63,0,0,0,0,0,0C3.83.5,1.91,1.46.65,3.13c-.1.13-.15.29-.15.45v37.4c0,.32.21.61.51.71ZM2,29.79v-7.19c2.03-2.47,5.79-2.47,7.82,0v7.19c-2.31-1.72-5.48-1.74-7.82,0ZM9.82,20.46c-2.31-1.72-5.48-1.74-7.82,0v-7.19c2.03-2.47,5.79-2.47,7.82,0v7.19ZM5.92,37.9h0c-1.44,0-2.8.45-3.91,1.28v-7.26c2.03-2.47,5.79-2.47,7.82,0v7.26c-1.11-.83-2.47-1.28-3.9-1.28ZM5.92,2s0,0,0,0c1.53,0,2.94.67,3.9,1.84v7.28c-2.29-1.7-5.47-1.75-7.82,0V3.84c.97-1.17,2.38-1.84,3.91-1.84Z"/>
  <path class="cls-1" d="M35.89,2.41c.38.16.82-.01.99-.39.16-.38-.01-.82-.39-.99-2.51-1.08-5.37-.49-7.26,1.41-1.23-1.24-2.88-1.94-4.66-1.94,0,0,0,0,0,0-1.78,0-3.44.7-4.67,1.94C18.02.54,15.16-.05,12.64,1.04c-.38.16-.56.61-.39.99.16.38.61.56.99.39,2.09-.9,4.48-.31,5.91,1.43v7.34c-1.62-1.21-3.74-1.6-5.78-1.01-.4.12-.63.53-.51.93.12.4.53.63.93.51,1.99-.59,4.06.07,5.36,1.65v7.17c-1.62-1.21-3.74-1.62-5.78-1.02-.4.12-.63.53-.51.93.12.4.53.62.93.51,1.98-.58,4.06.06,5.35,1.63v7.34c-1.62-1.21-3.74-1.61-5.78-1.01-.4.12-.63.53-.51.93.12.4.53.63.93.51,1.99-.58,4.06.07,5.35,1.65v7.25c-1.62-1.21-3.74-1.61-5.78-1.01-.4.12-.63.53-.51.93.12.4.53.62.93.51,2.06-.61,4.22.11,5.5,1.82,0,0,.01,0,.02.02.32.4.9.37,1.19-.01.97-1.29,2.45-2.03,4.06-2.03h0c1.6,0,3.08.73,4.04,2.01,0,0,0,0,0,0,0,0,0,0,0,.01,0,0,0,0,0,0,.33.42.95.35,1.21-.03,1.29-1.69,3.44-2.4,5.49-1.81.4.12.82-.11.93-.51.12-.4-.11-.82-.51-.93-2.03-.59-4.14-.19-5.77,1.02v-7.26c1.3-1.57,3.37-2.23,5.35-1.65.4.12.82-.11.93-.51.12-.4-.11-.82-.51-.93-2.03-.59-4.14-.19-5.77,1.02v-7.25c1.3-1.57,3.37-2.23,5.35-1.65.4.12.82-.11.93-.51.12-.4-.11-.82-.51-.93-2.03-.59-4.15-.19-5.77,1.02v-7.25c1.3-1.57,3.37-2.23,5.35-1.65.4.12.82-.11.93-.51.03-.11.03-.21.02-.31,0-.32-.21-.61-.53-.7-2.04-.59-4.14-.18-5.77,1.03V3.84c1.44-1.74,3.83-2.33,5.91-1.43ZM20.65,13.26c2.03-2.46,5.78-2.47,7.82,0v7.19c-2.32-1.72-5.5-1.72-7.82,0v-7.19ZM20.65,22.6c2.03-2.46,5.78-2.47,7.82,0v7.19c-2.32-1.72-5.5-1.72-7.82,0v-7.19ZM24.57,2s0,0,0,0c1.53,0,2.94.67,3.9,1.83v7.28c-2.32-1.72-5.49-1.73-7.82,0V3.84c.97-1.17,2.38-1.84,3.91-1.84ZM24.57,37.9h0c-1.44,0-2.8.45-3.91,1.28v-7.26c2.03-2.46,5.78-2.47,7.82,0v7.26c-1.11-.83-2.47-1.28-3.9-1.28Z"/>
  <path class="cls-1" d="M43.22.5s0,0,0,0c-2.09,0-4.01.96-5.27,2.63-.1.13-.15.29-.15.45v37.4c0,.32.21.61.51.71.31.1.65,0,.84-.26.97-1.29,2.45-2.03,4.06-2.03h0c1.61,0,3.09.74,4.06,2.03.14.19.37.3.6.3.08,0,.16-.01.24-.04.31-.1.51-.39.51-.71V3.58c0-.16-.05-.32-.15-.45-1.25-1.67-3.17-2.63-5.26-2.63ZM47.12,20.46c-2.3-1.71-5.48-1.74-7.82,0v-7.19c2.03-2.47,5.79-2.47,7.82,0v7.19ZM39.3,29.79v-7.19c2.03-2.47,5.79-2.47,7.82,0v7.19c-2.3-1.71-5.48-1.74-7.82,0ZM43.22,2s0,0,0,0c1.53,0,2.94.67,3.9,1.84v7.28c-2.28-1.7-5.46-1.76-7.82,0V3.84c.97-1.17,2.38-1.84,3.91-1.84ZM43.22,37.9h0c-1.44,0-2.8.45-3.91,1.28v-7.26c2.03-2.47,5.79-2.47,7.82,0v7.26c-1.11-.83-2.47-1.28-3.9-1.28Z"/>
</svg>