<?xml version="1.0" encoding="UTF-8"?>
<svg id="Layer_1" xmlns="http://www.w3.org/2000/svg" version="1.1" viewBox="0 0 53 54">
  <!-- Generator: Adobe Illustrator 29.3.1, SVG Export Plug-In . SVG Version: 2.1.0 Build 151)  -->
  <defs>
    <style>
      .st0 {
        stroke: #fff;
      }

      .st0, .st1 {
        fill: none;
        stroke-linecap: round;
        stroke-linejoin: round;
        stroke-width: 1.5px;
      }

      .st1 {
        stroke: #f60;
      }
    </style>
  </defs>
  <path class="st1" d="M26,36.6c9.4,0,17-7.6,17-17S35.4,2.5,26,2.5,9,10.1,9,19.5s7.6,17,17,17Z"/>
  <path class="st0" d="M26,27.1c4.2,0,7.6-3.4,7.6-7.6s-3.4-7.6-7.6-7.6-7.6,3.4-7.6,7.6,3.4,7.6,7.6,7.6Z"/>
  <path class="st1" d="M22.7,36.3l-3.3,14c0,.3-.2.5-.4.7-.2.2-.4.4-.6.5-.3.1-.5.2-.8.2s-.6,0-.8-.2l-12.6-5.5c-.3-.1-.5-.3-.7-.5-.2-.2-.3-.5-.4-.8,0-.3,0-.6,0-.9,0-.3.2-.6.4-.8l9.7-12.2"/>
  <path class="st1" d="M30.3,36.1l3.4,14.2c0,.3.2.5.4.7.2.2.4.4.7.5.2.1.5.2.8.2s.5,0,.8-.2l12.5-5.5c.3-.1.5-.3.7-.5.2-.2.3-.5.4-.8,0-.3,0-.6,0-.9,0-.3-.2-.5-.4-.8l-10.1-12.9"/>
</svg>